<?xml version="1.0" standalone="no"?>
<!DOCTYPE svg PUBLIC "-//W3C//DTD SVG 20010904//EN"
 "http://www.w3.org/TR/2001/REC-SVG-20010904/DTD/svg10.dtd">
<svg version="1.0" xmlns="http://www.w3.org/2000/svg"
 width="2044.000000pt" height="2044.000000pt" viewBox="0 0 2044.000000 2044.000000"
 preserveAspectRatio="xMidYMid meet">
<metadata>
Created by potrace 1.14, written by Peter Selinger 2001-2017
</metadata>
<g transform="translate(0.000000,2044.000000) scale(0.100000,-0.100000)"
fill="#000000" stroke="none">
<path d="M10145 17970 c-4 -6 -11 -8 -16 -5 -5 4 -9 2 -9 -3 0 -8 -55 -25 -64
-19 -1 1 -11 -5 -20 -13 -17 -13 -35 -20 -63 -22 -7 -1 -13 -5 -13 -9 0 -4
-12 -10 -27 -14 -16 -3 -41 -13 -58 -20 -16 -8 -37 -15 -45 -17 -8 -2 -17 -5
-20 -8 -12 -12 -114 -49 -121 -44 -5 3 -9 0 -9 -5 0 -6 -9 -11 -20 -11 -11 0
-20 -4 -20 -10 0 -5 -3 -9 -7 -8 -5 1 -24 -4 -43 -11 -19 -8 -38 -13 -42 -12
-5 0 -8 -3 -8 -9 0 -5 -7 -7 -15 -4 -8 4 -15 1 -15 -4 0 -6 -16 -14 -35 -18
-19 -3 -35 -9 -35 -13 0 -4 -6 -8 -12 -8 -17 0 -215 -79 -250 -99 -16 -8 -28
-13 -28 -9 0 3 -13 -1 -29 -9 -16 -9 -31 -12 -35 -9 -3 4 -6 1 -6 -5 0 -7 -7
-12 -16 -12 -8 0 -25 -5 -37 -12 -12 -7 -26 -13 -32 -14 -25 -6 -81 -30 -86
-37 -3 -5 -9 -8 -13 -7 -7 2 -45 -11 -111 -39 -22 -10 -59 -23 -82 -31 -24 -7
-43 -16 -43 -19 0 -4 -10 -7 -22 -8 -11 -1 -24 -7 -28 -13 -4 -6 -11 -10 -16
-9 -5 1 -20 -2 -34 -8 -21 -10 -52 -22 -70 -28 -7 -2 -61 -24 -80 -32 -8 -3
-18 -5 -22 -5 -5 1 -8 -2 -8 -8 0 -5 -7 -7 -15 -4 -8 4 -15 1 -15 -5 0 -6 -6
-11 -14 -11 -7 0 -31 -8 -52 -17 -22 -9 -41 -17 -44 -18 -3 -1 -18 -7 -35 -14
-40 -16 -59 -22 -65 -22 -3 -1 -11 -5 -17 -11 -7 -6 -13 -7 -13 -3 0 4 -6 3
-13 -3 -7 -6 -39 -20 -72 -33 -33 -12 -80 -30 -103 -41 -24 -11 -53 -20 -63
-21 -10 -1 -19 -4 -19 -8 0 -7 -27 -17 -64 -25 -11 -3 -24 -8 -30 -12 -12 -10
-101 -43 -113 -43 -5 0 -15 -7 -24 -15 -9 -8 -19 -11 -23 -7 -4 4 -11 2 -15
-5 -4 -7 -18 -14 -29 -15 -12 -1 -22 -5 -22 -9 0 -4 -3 -8 -7 -7 -5 1 -18 -2
-30 -6 -12 -4 -25 -6 -29 -5 -4 1 -10 -3 -13 -9 -4 -6 -16 -12 -26 -14 -11 -2
-35 -11 -52 -20 -18 -10 -33 -15 -33 -11 0 4 -7 0 -17 -7 -9 -8 -18 -13 -20
-11 -2 1 -17 -5 -33 -13 -16 -8 -31 -15 -32 -14 -3 0 -50 -16 -78 -28 -8 -3
-18 -5 -22 -5 -5 1 -8 -2 -8 -6 0 -5 -6 -9 -12 -10 -18 -1 -112 -36 -118 -43
-3 -3 -23 -12 -45 -19 -22 -7 -56 -20 -75 -28 -19 -9 -38 -17 -42 -18 -5 -1
-10 -3 -13 -4 -3 -1 -8 -3 -12 -4 -5 -1 -17 -7 -28 -13 -11 -6 -24 -12 -30
-13 -5 -1 -28 -9 -50 -18 -22 -9 -43 -16 -47 -14 -5 1 -8 -2 -8 -6 0 -5 -7 -9
-15 -9 -8 0 -29 -7 -47 -15 -38 -18 -138 -58 -153 -61 -5 -1 -12 -5 -15 -9 -3
-4 -15 -9 -25 -11 -11 -2 -38 -12 -60 -22 -22 -10 -48 -20 -58 -21 -10 -2 -32
-11 -49 -20 -16 -8 -39 -17 -51 -20 -11 -2 -23 -7 -26 -11 -6 -8 -27 -15 -48
-16 -7 0 -13 -4 -13 -9 0 -5 -4 -7 -9 -3 -5 3 -12 1 -16 -5 -4 -6 -10 -8 -15
-5 -5 3 -13 -3 -19 -12 -6 -10 -11 -15 -11 -11 0 7 -41 -7 -115 -37 -11 -5
-22 -9 -25 -10 -26 -9 -49 -19 -70 -29 -14 -8 -31 -11 -39 -8 -9 3 -11 0 -6
-7 4 -8 2 -11 -6 -10 -8 2 -31 -5 -53 -14 -21 -9 -45 -17 -52 -17 -8 0 -14 -4
-14 -10 0 -5 -8 -10 -18 -10 -10 0 -22 -3 -26 -7 -3 -4 -12 -8 -19 -9 -7 -1
-45 -16 -84 -33 -40 -16 -73 -28 -73 -25 0 3 -10 -2 -22 -10 -12 -9 -30 -16
-40 -16 -10 0 -18 -4 -18 -10 0 -5 -3 -9 -7 -8 -5 1 -24 -4 -43 -11 -19 -8
-38 -15 -42 -16 -5 -1 -11 -4 -15 -5 -5 -1 -11 -2 -15 -1 -5 0 -8 -4 -8 -9 0
-6 -5 -10 -12 -10 -6 0 -41 -12 -77 -27 -36 -14 -72 -26 -78 -26 -7 0 -13 -4
-13 -9 0 -4 -9 -8 -19 -8 -11 0 -22 -4 -25 -9 -3 -5 -18 -12 -33 -16 -16 -3
-41 -13 -58 -20 -62 -27 -194 -77 -197 -74 -2 2 -14 -4 -28 -14 -13 -9 -32
-17 -42 -17 -10 0 -18 -4 -18 -8 0 -5 -7 -9 -15 -10 -8 -1 -22 -3 -30 -4 -8
-1 -15 -5 -15 -10 0 -4 -4 -8 -9 -8 -5 0 -20 -4 -33 -9 -13 -5 -25 -9 -28 -10
-3 0 -36 -14 -75 -30 -38 -16 -73 -27 -77 -25 -4 3 -8 1 -8 -5 0 -8 -23 -20
-55 -27 -5 -1 -73 -28 -150 -59 -77 -32 -146 -58 -152 -58 -7 0 -13 -4 -13 -9
0 -5 -4 -7 -9 -3 -5 3 -12 1 -16 -5 -4 -6 -11 -8 -16 -5 -5 4 -9 1 -9 -4 0 -6
-3 -10 -7 -9 -8 2 -151 -51 -168 -63 -13 -9 -89 -33 -94 -30 -2 2 -7 -1 -10
-6 -3 -5 -35 -20 -71 -33 -36 -13 -70 -27 -76 -32 -6 -4 -14 -5 -17 -1 -4 3
-7 1 -7 -5 0 -7 -3 -11 -7 -10 -5 1 -24 -4 -43 -11 -19 -8 -38 -15 -42 -16 -5
-1 -10 -4 -13 -5 -3 -1 -8 -3 -12 -4 -5 -1 -23 -10 -40 -19 -18 -10 -35 -17
-38 -17 -5 0 -8 -1 -22 -5 -8 -2 -55 -20 -83 -32 -8 -3 -17 -7 -20 -7 -3 -1
-15 -7 -27 -14 -13 -7 -23 -10 -23 -6 0 3 -6 1 -13 -5 -8 -6 -17 -8 -20 -4 -4
3 -7 1 -7 -5 0 -7 -8 -12 -18 -12 -10 0 -23 -5 -30 -12 -7 -7 -12 -8 -12 -4 0
5 -7 3 -15 -4 -8 -7 -15 -9 -15 -6 0 4 -7 0 -16 -8 -8 -9 -19 -14 -24 -11 -5
3 -11 1 -15 -5 -4 -6 -11 -8 -16 -5 -5 4 -9 1 -9 -6 0 -7 -3 -10 -6 -7 -5 6
-29 -2 -109 -37 -27 -11 -60 -25 -75 -30 -3 -1 -14 -5 -25 -9 -11 -5 -27 -10
-35 -14 -8 -3 -18 -4 -22 -4 -5 1 -8 -3 -8 -9 0 -5 -5 -7 -10 -4 -6 3 -10 1
-10 -4 0 -6 -3 -10 -8 -10 -20 3 -42 -2 -54 -13 -7 -7 -24 -15 -38 -16 -14 -2
-32 -10 -41 -18 -8 -8 -23 -14 -33 -14 -9 0 -36 -10 -59 -21 -23 -12 -43 -21
-44 -20 -5 2 -22 -3 -53 -16 -42 -18 -85 -36 -90 -38 -3 -1 -18 -8 -35 -15
-16 -7 -34 -14 -40 -15 -5 -2 -17 -4 -25 -6 -8 -2 -18 -8 -21 -12 -3 -4 -19
-10 -35 -13 -16 -3 -31 -9 -34 -14 -3 -5 -15 -11 -25 -13 -11 -3 -36 -10 -55
-17 -19 -8 -37 -12 -39 -11 -2 1 -7 -2 -11 -9 -4 -6 -19 -13 -34 -16 -15 -2
-39 -12 -52 -21 -13 -8 -24 -12 -24 -8 0 4 -7 2 -15 -5 -8 -7 -15 -9 -15 -4 0
5 -4 3 -8 -4 -5 -7 -22 -15 -37 -18 -16 -3 -34 -9 -41 -15 -6 -5 -14 -6 -17
-2 -4 3 -7 1 -7 -6 0 -7 -5 -9 -10 -6 -6 3 -10 1 -10 -6 0 -7 -3 -10 -6 -6 -5
5 -71 -19 -164 -61 -19 -9 -39 -17 -45 -18 -26 -4 -55 -17 -55 -26 0 -5 -4 -7
-10 -3 -5 3 -28 -3 -52 -13 -71 -32 -179 -75 -190 -76 -3 -1 -10 -4 -14 -8 -4
-5 -16 -8 -26 -8 -10 0 -18 -5 -18 -12 0 -6 -3 -8 -7 -5 -3 4 -12 2 -20 -4 -7
-6 -13 -8 -13 -5 0 4 -10 1 -22 -6 -13 -7 -25 -13 -28 -13 -3 -1 -18 -7 -33
-13 -15 -7 -39 -15 -53 -18 -13 -3 -27 -10 -30 -15 -3 -5 -14 -9 -25 -9 -10 0
-19 -5 -19 -10 0 -6 -3 -9 -7 -8 -5 1 -23 -3 -41 -9 -18 -7 -33 -12 -35 -11
-1 1 -21 -9 -45 -21 -23 -12 -42 -19 -42 -15 0 3 -10 0 -22 -8 -24 -16 -100
-43 -107 -39 -2 2 -7 -2 -10 -8 -4 -5 -19 -12 -35 -15 -16 -3 -32 -10 -36 -16
-4 -7 -11 -11 -16 -11 -5 1 -22 -4 -39 -10 -16 -7 -33 -11 -38 -10 -4 0 -7 -3
-7 -7 0 -5 -7 -9 -15 -10 -8 -1 -22 -3 -30 -4 -8 -1 -15 -5 -15 -10 0 -4 -8
-8 -18 -8 -10 0 -22 -3 -26 -7 -4 -4 -33 -17 -64 -29 l-57 -21 1 -59 c1 -63
12 -223 19 -264 2 -14 7 -63 10 -110 4 -47 8 -103 11 -125 2 -22 6 -71 9 -110
7 -74 12 -129 20 -210 6 -64 13 -140 20 -235 6 -79 10 -120 20 -210 3 -30 7
-84 10 -120 2 -36 5 -65 5 -65 1 0 3 -22 5 -50 12 -139 15 -174 20 -215 3 -25
7 -79 10 -120 3 -41 7 -88 9 -105 3 -16 8 -68 11 -115 10 -125 13 -164 19
-222 8 -82 16 -166 21 -243 4 -62 7 -73 32 -94 15 -13 49 -42 74 -65 62 -56
183 -164 211 -188 28 -24 143 -126 174 -153 25 -23 107 -96 259 -230 37 -33
80 -71 95 -85 15 -14 53 -48 86 -77 32 -28 71 -62 85 -75 25 -22 106 -94 214
-189 45 -39 76 -67 150 -134 13 -11 51 -45 86 -75 34 -30 78 -70 97 -87 18
-18 36 -33 38 -33 3 0 78 -67 136 -122 10 -10 20 -18 22 -18 3 0 17 -12 33
-27 34 -33 108 -99 189 -170 32 -28 73 -64 89 -80 17 -15 53 -47 80 -71 93
-80 179 -157 217 -193 21 -20 38 -34 38 -32 0 1 18 -14 40 -35 21 -20 62 -57
90 -82 29 -25 62 -54 74 -65 12 -11 42 -37 67 -58 93 -81 184 -163 205 -184
12 -13 24 -23 27 -23 4 0 30 -22 58 -50 28 -27 54 -50 57 -50 2 0 14 -10 26
-23 12 -12 50 -47 85 -77 34 -30 79 -70 98 -87 19 -18 39 -33 44 -33 6 0 7 -4
4 -10 -3 -5 -2 -10 3 -10 9 0 67 -48 140 -117 25 -24 48 -43 52 -43 3 0 16
-10 27 -22 11 -13 53 -52 94 -88 40 -36 84 -75 97 -87 12 -13 25 -23 27 -23 3
0 20 -15 39 -32 19 -18 57 -53 85 -78 89 -78 107 -94 172 -152 35 -32 80 -71
100 -88 20 -16 59 -51 87 -78 27 -26 74 -67 103 -92 29 -25 62 -54 73 -65 12
-11 50 -45 85 -75 35 -30 81 -71 101 -90 21 -19 55 -49 76 -66 22 -18 60 -52
85 -75 26 -24 59 -55 75 -68 33 -28 177 -155 210 -186 18 -17 104 -93 163
-144 10 -9 51 -45 91 -81 40 -36 82 -73 94 -83 12 -10 57 -51 100 -90 43 -40
87 -78 97 -84 9 -7 35 -30 57 -50 22 -21 70 -65 108 -98 37 -33 79 -71 93 -83
14 -13 53 -47 85 -75 33 -29 70 -61 82 -72 25 -23 129 -115 160 -142 91 -78
176 -155 211 -190 24 -23 43 -40 43 -37 0 3 6 -1 13 -8 17 -16 157 -142 188
-169 13 -11 53 -46 89 -79 36 -32 76 -68 90 -80 27 -23 124 -109 170 -150 16
-14 56 -50 90 -80 35 -30 78 -70 97 -88 19 -17 38 -32 43 -32 5 0 10 -4 12 -9
1 -5 32 -35 68 -66 36 -32 95 -85 132 -117 37 -33 78 -69 90 -80 13 -11 52
-45 87 -76 34 -31 75 -68 90 -81 14 -12 57 -51 95 -85 38 -33 78 -69 89 -79
45 -39 153 -134 196 -174 25 -23 57 -51 71 -63 38 -32 138 -121 175 -155 18
-16 53 -47 77 -67 25 -21 66 -57 90 -80 25 -24 58 -54 74 -67 61 -51 191 -167
227 -203 21 -21 42 -38 46 -38 3 0 21 -15 38 -33 17 -18 47 -44 67 -57 20 -14
36 -31 36 -37 0 -7 4 -13 8 -13 5 0 28 -18 53 -40 24 -23 60 -55 81 -72 36
-29 54 -45 160 -144 26 -24 50 -44 53 -44 2 0 17 -12 33 -28 27 -26 129 -117
182 -162 14 -12 41 -36 60 -53 19 -18 73 -66 120 -107 46 -41 105 -94 130
-116 25 -23 61 -55 79 -70 19 -16 45 -39 58 -51 12 -13 26 -23 31 -23 5 0 26
17 48 38 22 20 73 66 114 102 41 36 87 77 102 92 16 14 28 25 28 23 0 -3 46
38 146 131 29 28 54 49 54 47 0 -2 15 11 33 28 17 18 53 49 79 69 26 21 44 40
41 44 -4 3 -2 6 4 6 6 0 24 12 41 28 16 15 54 49 85 75 31 27 71 63 90 80 19
18 50 46 69 62 19 17 67 59 106 94 39 35 81 72 94 82 58 51 154 137 184 167
19 17 36 32 39 32 2 0 17 12 33 27 16 16 57 53 91 83 35 30 77 69 95 85 18 17
54 48 80 70 27 22 65 56 85 75 21 19 66 60 100 90 35 30 76 66 91 80 15 14 51
45 80 70 29 25 67 59 85 75 17 17 58 53 89 80 32 28 75 66 96 85 21 19 52 46
67 60 64 55 166 147 197 175 18 17 59 53 91 80 32 28 74 65 94 83 20 18 55 50
79 70 24 20 64 57 90 80 26 24 69 62 96 85 28 23 64 56 82 72 17 17 60 55 94
85 35 30 68 60 74 65 6 6 49 44 96 85 47 41 90 80 96 85 6 6 39 35 74 65 35
30 81 72 102 92 22 20 52 47 68 60 15 13 62 55 105 93 43 39 90 80 104 93 14
12 38 32 52 45 57 50 174 154 199 177 15 14 51 45 80 70 29 25 64 56 79 70 15
14 60 54 101 90 80 70 147 130 191 170 15 14 51 45 80 70 29 25 70 62 92 82
22 21 41 38 43 38 2 0 12 8 22 18 10 9 54 49 97 87 44 39 91 81 106 95 15 14
49 44 76 66 26 23 69 61 95 85 26 24 60 55 75 68 16 13 46 40 69 60 22 20 71
63 109 96 38 33 79 70 92 82 13 12 56 50 96 85 39 35 89 79 112 99 22 20 63
56 90 80 28 24 65 58 83 76 17 18 32 30 32 27 0 -3 11 5 24 18 12 13 54 50 91
83 133 118 159 140 191 170 17 17 53 48 80 70 26 22 70 61 96 86 26 26 48 45
48 43 0 -3 22 16 110 96 21 19 62 55 90 80 29 25 64 56 78 70 15 14 58 52 97
85 38 33 79 69 90 80 11 11 51 47 90 80 38 33 83 72 99 88 17 15 34 27 39 27
4 0 5 5 2 10 -3 6 -1 10 4 10 6 0 19 8 29 18 10 9 48 44 86 77 37 33 78 69 90
80 12 11 50 45 85 75 35 30 76 66 91 80 35 32 165 148 199 177 14 13 38 33 52
45 14 13 56 50 94 83 37 33 83 74 101 90 18 17 63 57 100 90 37 33 78 69 90
80 12 11 50 45 85 75 35 30 75 66 90 80 15 14 53 48 85 75 32 28 75 66 96 85
21 19 51 46 68 60 16 14 54 48 84 75 30 28 78 70 107 95 28 25 67 59 85 75 18
17 56 50 85 75 28 25 69 61 90 80 20 19 64 58 95 85 32 28 65 57 74 65 9 8 49
44 90 80 41 35 82 71 91 80 8 8 44 40 79 70 58 51 131 116 186 165 12 11 50
45 85 75 34 30 85 76 113 102 28 26 54 48 58 48 12 0 40 60 28 60 -7 0 -8 5
-3 13 4 6 8 32 8 57 1 25 3 50 6 55 3 6 5 29 5 52 -1 24 1 43 4 43 3 0 5 25 5
56 0 31 2 57 6 59 3 2 5 23 4 45 -1 23 2 43 7 46 5 3 4 12 -3 20 -6 8 -7 14
-3 14 5 0 10 21 10 48 1 26 4 59 7 75 4 17 1 27 -6 27 -8 0 -7 3 2 9 8 5 11
16 8 25 -4 9 -1 16 6 16 8 0 6 4 -3 10 -8 5 -10 10 -5 10 6 0 11 19 11 43 3
64 13 159 18 164 3 3 1 16 -5 30 -5 13 -5 22 0 19 5 -3 9 15 10 42 1 26 3 70
6 97 3 28 7 75 9 105 3 30 5 55 6 55 1 0 3 23 4 50 1 28 6 56 10 64 7 10 5 12
-5 6 -11 -7 -12 -6 -3 6 6 8 10 28 9 44 0 17 3 36 8 43 6 8 5 12 -3 12 -8 0
-9 4 -3 13 5 6 9 29 8 50 0 20 3 37 8 37 5 0 4 6 -2 14 -7 8 -8 17 -3 20 5 3
10 27 11 53 3 61 14 208 27 328 4 39 7 89 8 113 1 23 3 42 6 42 3 0 5 17 4 38
0 20 3 45 8 55 6 11 5 17 -2 17 -6 0 -8 5 -3 13 4 6 9 39 11 72 1 33 5 78 7
100 2 22 6 64 9 92 3 29 8 58 12 64 5 8 3 9 -6 4 -10 -6 -12 -4 -7 7 3 10 -3
19 -16 26 -41 19 -92 37 -99 34 -5 -1 -8 2 -8 8 0 6 -3 9 -7 8 -5 -1 -18 3
-31 10 -12 7 -26 11 -31 8 -5 -3 -14 1 -21 9 -7 8 -16 13 -20 10 -5 -3 -11 -1
-15 5 -4 6 -11 8 -16 5 -5 -4 -9 -1 -9 4 0 6 -3 10 -7 9 -5 -2 -28 6 -53 16
-25 11 -49 20 -55 22 -5 1 -26 9 -46 18 -20 8 -39 12 -43 9 -3 -4 -6 -1 -6 5
0 7 -9 12 -19 12 -11 0 -23 5 -26 10 -4 6 -11 8 -16 5 -5 -4 -9 -1 -9 4 0 6
-3 10 -7 10 -5 -1 -10 0 -13 1 -3 1 -14 3 -25 5 -11 2 -21 8 -23 14 -2 5 -10
7 -18 4 -8 -3 -14 0 -14 6 0 7 -6 11 -12 10 -7 -1 -26 4 -43 11 -16 7 -33 13
-37 12 -5 -1 -8 3 -8 9 0 5 -4 7 -10 4 -5 -3 -22 2 -37 12 -15 10 -28 17 -30
16 -1 -1 -17 3 -35 10 -18 6 -36 10 -40 9 -5 -1 -8 3 -8 9 0 5 -4 7 -10 4 -5
-3 -10 -1 -10 4 0 6 -3 10 -7 9 -5 -1 -24 4 -43 11 -19 8 -40 15 -47 16 -7 2
-27 10 -44 19 -18 9 -38 16 -46 16 -7 0 -13 4 -13 8 0 4 -12 9 -27 10 -16 1
-29 7 -31 12 -2 6 -15 10 -28 10 -13 0 -24 5 -24 10 0 6 -6 10 -14 10 -7 0
-31 8 -52 17 -22 9 -42 18 -46 19 -5 1 -10 3 -13 4 -3 1 -9 3 -14 4 -5 0 -13
4 -17 9 -4 4 -16 7 -26 7 -10 0 -18 5 -18 11 0 5 -4 8 -9 4 -5 -3 -13 0 -16 6
-4 5 -13 8 -21 5 -8 -3 -14 -2 -14 3 0 5 -20 14 -45 21 -25 7 -45 17 -45 22 0
5 -3 7 -7 5 -5 -3 -19 0 -33 6 -14 5 -31 11 -39 13 -8 1 -17 8 -21 14 -4 7
-10 11 -14 10 -6 -2 -54 11 -71 20 -3 1 -8 3 -12 4 -5 1 -24 9 -43 18 -19 8
-53 21 -75 29 -22 8 -42 16 -45 19 -3 3 -12 6 -20 8 -8 2 -31 10 -50 19 -35
17 -54 23 -77 25 -7 1 -13 5 -13 10 0 5 -4 6 -10 3 -5 -3 -10 -1 -10 5 0 7 -7
10 -15 6 -8 -3 -15 -1 -15 4 0 6 -3 9 -7 8 -5 -1 -18 3 -31 10 -12 7 -26 11
-31 8 -5 -3 -14 1 -21 10 -7 8 -19 13 -27 10 -7 -3 -13 -1 -13 4 0 7 -50 23
-65 20 -3 0 -13 6 -21 15 -9 8 -23 15 -33 15 -10 0 -21 3 -25 8 -4 4 -11 7
-14 8 -13 2 -86 31 -116 46 -10 5 -26 11 -35 13 -9 2 -29 9 -46 16 -16 7 -33
12 -37 11 -5 -1 -8 3 -8 9 0 6 -7 9 -15 5 -8 -3 -15 -1 -15 4 0 6 -11 10 -25
10 -14 0 -25 5 -25 11 0 6 -7 9 -15 5 -8 -3 -18 2 -23 10 -5 9 -11 14 -13 12
-6 -4 -93 25 -100 34 -3 4 -17 9 -32 10 -15 1 -27 5 -27 9 0 6 -74 31 -86 29
-4 -1 -10 3 -14 10 -4 6 -13 13 -21 14 -8 2 -22 6 -31 10 -9 4 -23 9 -31 10
-8 1 -22 8 -31 15 -9 7 -16 10 -16 6 0 -4 -7 -2 -15 5 -8 7 -15 9 -15 5 0 -4
-6 -2 -13 4 -8 6 -17 8 -20 4 -4 -3 -7 -1 -7 5 0 7 -6 12 -13 12 -12 0 -59 18
-167 63 -14 5 -29 11 -35 13 -5 1 -23 8 -40 15 -16 7 -32 13 -35 14 -32 11
-51 19 -83 35 -20 10 -34 14 -31 8 4 -5 -6 -2 -22 8 -15 11 -29 18 -31 16 -2
-1 -16 4 -32 12 -16 9 -31 12 -35 9 -3 -4 -6 -2 -6 3 0 5 -8 10 -17 11 -10 1
-48 15 -85 32 -38 17 -68 28 -68 25 0 -2 -11 3 -25 12 -14 9 -25 13 -25 9 0
-4 -6 -2 -13 4 -8 6 -17 8 -20 4 -4 -3 -7 0 -7 7 0 7 -3 11 -6 7 -4 -3 -19 0
-35 9 -16 8 -29 11 -29 7 0 -5 -4 -2 -8 5 -5 7 -18 14 -30 17 -11 2 -29 8 -40
14 -11 6 -22 7 -26 4 -3 -3 -6 -1 -6 5 0 7 -9 12 -19 12 -11 0 -23 5 -26 11
-4 6 -13 8 -21 5 -8 -3 -14 -1 -14 5 0 6 -4 7 -10 4 -5 -3 -10 -3 -10 2 0 8
-62 33 -87 35 -7 1 -13 4 -13 8 0 4 -6 7 -12 7 -15 1 -81 26 -88 33 -3 3 -14
7 -25 8 -11 2 -23 8 -26 14 -3 5 -9 9 -13 9 -3 -1 -7 -1 -8 0 -2 0 -10 2 -19
4 -15 3 -59 21 -114 47 -12 5 -27 10 -35 12 -8 1 -32 10 -54 19 -21 9 -44 17
-52 17 -7 0 -20 7 -28 16 -9 8 -16 13 -16 9 0 -3 -13 1 -29 9 -16 9 -31 12
-35 9 -3 -4 -6 0 -6 7 0 7 -3 11 -6 7 -4 -3 -19 0 -34 8 -15 8 -30 11 -34 8
-3 -4 -6 -1 -6 6 0 7 -4 10 -9 6 -5 -3 -12 -1 -16 5 -3 5 -15 10 -26 10 -10 0
-19 5 -19 11 0 5 -4 8 -9 4 -6 -3 -25 3 -43 13 -18 10 -39 17 -45 15 -7 -3
-13 0 -13 6 0 6 -9 11 -19 11 -11 0 -23 5 -26 11 -4 6 -13 8 -21 5 -8 -3 -14
-1 -14 5 0 6 -4 7 -10 4 -5 -3 -10 -2 -10 3 0 9 -55 26 -72 23 -5 0 -8 4 -8 9
0 6 -9 10 -20 10 -11 0 -20 5 -20 11 0 5 -5 7 -10 4 -6 -4 -17 -2 -24 5 -8 6
-23 12 -34 15 -11 2 -39 13 -62 24 -24 11 -47 18 -51 15 -5 -3 -9 0 -9 5 0 6
-7 11 -15 11 -9 0 -27 7 -40 16 -14 9 -25 13 -25 9 0 -4 -12 0 -26 10 -15 9
-23 12 -20 6 5 -7 1 -9 -8 -5 -9 3 -16 10 -16 15 0 5 -9 9 -19 9 -11 0 -23 5
-26 11 -4 6 -13 8 -21 5 -8 -3 -14 -1 -14 5 0 6 -7 9 -15 5 -8 -3 -15 -1 -15
4 0 6 -4 10 -9 10 -5 0 -26 8 -47 17 -22 9 -46 18 -55 19 -8 2 -28 10 -44 18
-16 8 -32 13 -37 10 -4 -3 -8 -1 -8 4 0 8 -71 34 -86 32 -4 -1 -10 3 -14 10
-4 6 -17 12 -28 13 -12 1 -22 5 -22 9 0 4 -9 8 -19 8 -11 0 -23 5 -26 10 -4 6
-10 8 -15 5 -5 -3 -11 -1 -15 5 -4 6 -11 8 -16 5 -5 -4 -9 -1 -9 5 0 6 -4 8
-10 5 -5 -3 -10 -2 -10 4 0 6 -7 8 -15 5 -8 -4 -15 -1 -15 6 0 6 -4 8 -10 5
-5 -3 -10 -1 -10 4 0 6 -3 10 -7 10 -15 -3 -74 14 -79 22 -3 5 -14 9 -25 9
-10 0 -19 5 -19 12 0 6 -3 9 -6 5 -4 -3 -19 0 -34 8 -15 8 -30 11 -34 8 -3 -4
-6 -1 -6 6 0 8 -7 11 -15 7 -8 -3 -15 -1 -15 4 0 6 -9 10 -19 10 -11 0 -23 5
-26 10 -4 6 -11 8 -16 5 -5 -4 -9 -1 -9 5 0 7 -7 10 -15 6 -8 -3 -15 -1 -15 4
0 15 -22 12 -66 -9 -21 -10 -66 -31 -99 -46 -33 -16 -102 -48 -153 -71 -51
-24 -97 -44 -102 -44 -6 0 -10 -5 -10 -12 0 -6 -3 -8 -7 -5 -3 4 -12 2 -20 -4
-7 -6 -13 -8 -13 -3 0 5 -4 5 -8 -1 -4 -5 -23 -17 -42 -26 -19 -9 -61 -28 -92
-43 -31 -14 -62 -26 -67 -26 -6 0 -11 -4 -11 -10 0 -5 -5 -10 -11 -10 -5 0
-31 -10 -57 -22 -26 -12 -50 -21 -54 -20 -5 1 -8 -3 -8 -9 0 -5 -4 -7 -10 -4
-5 3 -10 1 -10 -5 0 -6 -4 -8 -10 -5 -5 3 -10 1 -10 -4 0 -6 -3 -10 -7 -9 -5
1 -21 -5 -38 -12 -16 -7 -33 -13 -37 -12 -5 1 -8 -2 -8 -7 0 -8 -32 -22 -55
-25 -5 -1 -13 -5 -17 -11 -4 -5 -11 -10 -15 -10 -4 -1 -19 -7 -33 -15 -14 -7
-26 -13 -27 -12 -2 1 -59 -25 -129 -58 -69 -33 -130 -60 -135 -60 -5 0 -9 -5
-9 -10 0 -6 -3 -9 -7 -8 -15 4 -53 -13 -53 -23 0 -6 -4 -8 -9 -4 -5 3 -12 1
-16 -5 -4 -6 -10 -8 -15 -5 -5 3 -11 1 -15 -5 -25 -40 -27 17 -24 628 3 506 1
636 -8 634 -7 -1 -13 2 -13 8 0 5 -9 10 -19 10 -11 0 -23 5 -26 10 -4 6 -10 8
-15 5 -5 -3 -11 -1 -15 5 -4 6 -11 8 -16 5 -5 -4 -9 -1 -9 5 0 6 -4 8 -10 5
-5 -3 -10 -2 -10 4 0 6 -7 8 -15 5 -8 -4 -15 -1 -15 7 0 7 -3 9 -7 6 -3 -4
-17 0 -30 8 -13 9 -23 13 -23 10 0 -3 -10 0 -22 7 -13 7 -26 13 -30 14 -5 1
-10 3 -13 4 -3 1 -8 3 -12 5 -10 2 -42 14 -68 25 -26 11 -58 23 -67 25 -5 2
-11 4 -15 5 -5 1 -11 2 -15 1 -5 0 -8 4 -8 9 0 5 -3 9 -7 8 -8 -1 -43 11 -88
31 -11 5 -45 18 -75 30 -30 11 -68 26 -85 32 -16 7 -33 12 -37 11 -5 -1 -8 3
-8 10 0 6 -3 8 -6 5 -4 -3 -16 -1 -28 5 -11 7 -30 13 -41 15 -10 2 -23 9 -27
16 -4 6 -8 9 -8 4 0 -4 -13 -1 -29 7 -16 9 -31 12 -35 9 -3 -4 -6 0 -6 7 0 7
-3 11 -6 7 -4 -3 -19 0 -34 8 -15 8 -30 11 -34 8 -3 -4 -6 -1 -6 5 0 7 -9 12
-19 12 -11 0 -23 5 -26 10 -4 6 -11 8 -16 5 -5 -4 -9 -1 -9 5 0 6 -5 8 -11 4
-6 -3 -14 -3 -18 2 -7 10 -69 35 -88 37 -7 0 -13 4 -13 9 0 4 -11 8 -24 8 -14
0 -28 5 -31 10 -3 6 -15 10 -26 10 -10 0 -19 5 -19 11 0 5 -4 8 -9 4 -5 -3
-12 -1 -16 5 -4 6 -11 8 -16 4 -5 -3 -17 0 -25 7 -9 7 -23 14 -32 15 -8 2 -18
8 -22 14 -4 7 -10 11 -14 10 -13 -3 -66 12 -66 19 0 4 -7 8 -15 9 -8 1 -22 3
-30 4 -8 1 -15 6 -15 11 0 6 -3 8 -6 4 -4 -3 -19 0 -34 8 -15 8 -30 11 -34 8
-3 -4 -6 -1 -6 5 0 7 -6 12 -12 12 -7 0 -26 7 -42 15 -15 8 -32 12 -37 9 -5
-3 -9 0 -9 5 0 6 -3 10 -7 9 -5 -1 -21 4 -36 10 -16 7 -33 12 -38 12 -5 0 -9
5 -9 11 0 5 -4 8 -9 5 -5 -3 -22 1 -37 9 -34 18 -41 18 -49 5z m-1121 -5331
l1 -741 40 -22 c53 -30 1016 -575 1080 -611 28 -16 84 -47 125 -70 41 -23 99
-56 128 -74 29 -17 55 -31 58 -31 2 0 21 -11 42 -23 35 -23 76 -46 187 -107
88 -49 390 -221 393 -225 2 -2 -190 -133 -426 -290 -282 -187 -436 -284 -444
-279 -59 35 -274 180 -276 186 -2 4 -8 8 -13 8 -5 0 -35 17 -67 39 -31 21
-149 99 -262 173 -113 74 -299 197 -415 273 -115 76 -235 154 -265 174 -30 19
-56 39 -58 43 -2 5 -10 8 -17 8 -8 0 -19 8 -24 18 -6 9 -11 14 -11 9 0 -4 -67
37 -148 90 -81 54 -155 103 -164 108 -34 22 -204 135 -213 143 -5 4 -28 19
-50 32 -22 13 -41 28 -43 32 -2 4 -9 8 -16 8 -7 0 -21 9 -31 20 -10 11 -23 20
-30 20 -7 0 -23 10 -37 23 -14 12 -31 23 -39 25 -8 2 -16 7 -19 11 -9 11 -270
181 -279 181 -5 0 -11 4 -13 8 -4 10 -128 92 -139 92 -5 0 -9 4 -9 9 0 5 -13
14 -30 21 -16 7 -30 16 -30 21 0 4 -8 10 -19 14 -10 3 -28 13 -39 23 -12 9
-63 44 -114 77 -51 32 -94 63 -96 67 -2 4 -8 8 -13 8 -18 0 -268 173 -263 181
3 5 14 9 25 9 10 0 19 3 19 8 0 4 33 23 73 42 39 19 74 37 77 40 13 13 70 40
70 33 0 -4 4 -3 8 3 4 6 64 41 135 77 174 92 366 193 462 244 90 48 116 60
129 61 5 0 12 5 15 10 5 8 64 42 76 43 2 0 24 11 47 24 24 14 81 44 128 69 47
24 114 60 148 80 35 20 67 36 72 36 4 0 38 18 76 40 37 21 71 37 75 35 4 -3 9
-1 11 3 1 5 59 39 128 75 69 36 159 84 200 106 41 22 76 38 79 36 2 -3 4 -338
5 -746z"/>
</g>
</svg>
